<svg width="664" height="1103" viewBox="0 0 664 1103" fill="none" xmlns="http://www.w3.org/2000/svg">
<g filter="url(#filter0_i_910_683)">
<path d="M23.1914 106.617C23.1914 101.094 27.6686 96.6165 33.1914 96.6165H631.178C636.7 96.6165 641.178 101.094 641.178 106.617V1103H23.1914V106.617Z" fill="#854826"/>
<line x1="23.1914" y1="150.515" x2="641.178" y2="150.515" stroke="#E0E0E0" stroke-opacity="0.5" stroke-width="5"/>
<path d="M65.4814 206.177L65.4814 153.015" stroke="#E0E0E0" stroke-opacity="0.5" stroke-width="5"/>
<path d="M65.4814 317.124L65.4814 263.962" stroke="#E0E0E0" stroke-opacity="0.5" stroke-width="5"/>
<path d="M65.4814 428.071L65.4814 374.909" stroke="#E0E0E0" stroke-opacity="0.5" stroke-width="5"/>
<path d="M65.4814 539.018L65.4814 485.856" stroke="#E0E0E0" stroke-opacity="0.5" stroke-width="5"/>
<path d="M65.4814 649.966L65.4814 596.803" stroke="#E0E0E0" stroke-opacity="0.5" stroke-width="5"/>
<path d="M65.4814 760.913L65.4814 707.751" stroke="#E0E0E0" stroke-opacity="0.5" stroke-width="5"/>
<path d="M65.4814 871.86L65.4814 818.698" stroke="#E0E0E0" stroke-opacity="0.5" stroke-width="5"/>
<path d="M65.4814 982.807L65.4814 929.645" stroke="#E0E0E0" stroke-opacity="0.5" stroke-width="5"/>
<path d="M65.4814 1093.75L65.4814 1040.59" stroke="#E0E0E0" stroke-opacity="0.5" stroke-width="5"/>
<path d="M142.333 206.177L142.333 153.015" stroke="#E0E0E0" stroke-opacity="0.5" stroke-width="5"/>
<path d="M142.333 317.124L142.333 263.962" stroke="#E0E0E0" stroke-opacity="0.5" stroke-width="5"/>
<path d="M142.333 428.071L142.333 374.909" stroke="#E0E0E0" stroke-opacity="0.5" stroke-width="5"/>
<path d="M142.333 539.018L142.333 485.856" stroke="#E0E0E0" stroke-opacity="0.5" stroke-width="5"/>
<path d="M142.333 649.966L142.333 596.803" stroke="#E0E0E0" stroke-opacity="0.5" stroke-width="5"/>
<path d="M142.333 760.913L142.333 707.751" stroke="#E0E0E0" stroke-opacity="0.5" stroke-width="5"/>
<path d="M142.333 871.86L142.333 818.698" stroke="#E0E0E0" stroke-opacity="0.5" stroke-width="5"/>
<path d="M142.333 982.807L142.333 929.645" stroke="#E0E0E0" stroke-opacity="0.5" stroke-width="5"/>
<path d="M142.333 1093.75L142.333 1040.59" stroke="#E0E0E0" stroke-opacity="0.5" stroke-width="5"/>
<path d="M219.183 206.177L219.183 153.015" stroke="#E0E0E0" stroke-opacity="0.5" stroke-width="5"/>
<path d="M219.183 317.124L219.183 263.962" stroke="#E0E0E0" stroke-opacity="0.5" stroke-width="5"/>
<path d="M219.183 428.071L219.183 374.909" stroke="#E0E0E0" stroke-opacity="0.5" stroke-width="5"/>
<path d="M219.183 539.018L219.183 485.856" stroke="#E0E0E0" stroke-opacity="0.5" stroke-width="5"/>
<path d="M219.183 649.966L219.183 596.803" stroke="#E0E0E0" stroke-opacity="0.5" stroke-width="5"/>
<path d="M219.183 760.913L219.183 707.751" stroke="#E0E0E0" stroke-opacity="0.5" stroke-width="5"/>
<path d="M219.183 871.86L219.183 818.698" stroke="#E0E0E0" stroke-opacity="0.5" stroke-width="5"/>
<path d="M219.183 982.807L219.183 929.645" stroke="#E0E0E0" stroke-opacity="0.5" stroke-width="5"/>
<path d="M219.183 1093.75L219.183 1040.59" stroke="#E0E0E0" stroke-opacity="0.5" stroke-width="5"/>
<path d="M296.033 206.177L296.033 153.015" stroke="#E0E0E0" stroke-opacity="0.5" stroke-width="5"/>
<path d="M296.033 317.124L296.033 263.962" stroke="#E0E0E0" stroke-opacity="0.5" stroke-width="5"/>
<path d="M296.033 428.071L296.033 374.909" stroke="#E0E0E0" stroke-opacity="0.5" stroke-width="5"/>
<path d="M296.033 539.018L296.033 485.856" stroke="#E0E0E0" stroke-opacity="0.5" stroke-width="5"/>
<path d="M296.033 649.966L296.033 596.803" stroke="#E0E0E0" stroke-opacity="0.5" stroke-width="5"/>
<path d="M296.033 760.913L296.033 707.751" stroke="#E0E0E0" stroke-opacity="0.5" stroke-width="5"/>
<path d="M296.033 871.86L296.033 818.698" stroke="#E0E0E0" stroke-opacity="0.5" stroke-width="5"/>
<path d="M296.033 982.807L296.033 929.645" stroke="#E0E0E0" stroke-opacity="0.5" stroke-width="5"/>
<path d="M296.033 1093.75L296.033 1040.59" stroke="#E0E0E0" stroke-opacity="0.5" stroke-width="5"/>
<path d="M372.883 206.177L372.883 153.015" stroke="#E0E0E0" stroke-opacity="0.5" stroke-width="5"/>
<path d="M372.883 317.124L372.883 263.962" stroke="#E0E0E0" stroke-opacity="0.5" stroke-width="5"/>
<path d="M372.883 428.071L372.883 374.909" stroke="#E0E0E0" stroke-opacity="0.5" stroke-width="5"/>
<path d="M372.883 539.018L372.883 485.856" stroke="#E0E0E0" stroke-opacity="0.5" stroke-width="5"/>
<path d="M372.883 649.966L372.883 596.803" stroke="#E0E0E0" stroke-opacity="0.5" stroke-width="5"/>
<path d="M372.883 760.913L372.883 707.751" stroke="#E0E0E0" stroke-opacity="0.5" stroke-width="5"/>
<path d="M372.883 871.86L372.883 818.698" stroke="#E0E0E0" stroke-opacity="0.5" stroke-width="5"/>
<path d="M372.883 982.807L372.883 929.645" stroke="#E0E0E0" stroke-opacity="0.5" stroke-width="5"/>
<path d="M372.883 1093.75L372.883 1040.59" stroke="#E0E0E0" stroke-opacity="0.5" stroke-width="5"/>
<path d="M449.734 206.177L449.734 153.015" stroke="#E0E0E0" stroke-opacity="0.5" stroke-width="5"/>
<path d="M449.734 317.124L449.734 263.962" stroke="#E0E0E0" stroke-opacity="0.5" stroke-width="5"/>
<path d="M449.734 428.071L449.734 374.909" stroke="#E0E0E0" stroke-opacity="0.5" stroke-width="5"/>
<path d="M449.734 539.018L449.734 485.856" stroke="#E0E0E0" stroke-opacity="0.5" stroke-width="5"/>
<path d="M449.734 649.966L449.734 596.803" stroke="#E0E0E0" stroke-opacity="0.5" stroke-width="5"/>
<path d="M449.734 760.913L449.734 707.751" stroke="#E0E0E0" stroke-opacity="0.5" stroke-width="5"/>
<path d="M449.734 871.86L449.734 818.698" stroke="#E0E0E0" stroke-opacity="0.5" stroke-width="5"/>
<path d="M449.734 982.807L449.734 929.645" stroke="#E0E0E0" stroke-opacity="0.5" stroke-width="5"/>
<path d="M449.734 1093.75L449.734 1040.59" stroke="#E0E0E0" stroke-opacity="0.5" stroke-width="5"/>
<path d="M526.584 206.177L526.584 153.015" stroke="#E0E0E0" stroke-opacity="0.5" stroke-width="5"/>
<path d="M526.584 317.124L526.584 263.962" stroke="#E0E0E0" stroke-opacity="0.5" stroke-width="5"/>
<path d="M526.584 428.071L526.584 374.909" stroke="#E0E0E0" stroke-opacity="0.5" stroke-width="5"/>
<path d="M526.584 539.018L526.584 485.856" stroke="#E0E0E0" stroke-opacity="0.5" stroke-width="5"/>
<path d="M526.584 649.966L526.584 596.803" stroke="#E0E0E0" stroke-opacity="0.5" stroke-width="5"/>
<path d="M526.584 760.913L526.584 707.751" stroke="#E0E0E0" stroke-opacity="0.5" stroke-width="5"/>
<path d="M526.584 871.86L526.584 818.698" stroke="#E0E0E0" stroke-opacity="0.5" stroke-width="5"/>
<path d="M526.584 982.807L526.584 929.645" stroke="#E0E0E0" stroke-opacity="0.5" stroke-width="5"/>
<path d="M526.584 1093.75L526.584 1040.59" stroke="#E0E0E0" stroke-opacity="0.5" stroke-width="5"/>
<path d="M603.434 206.177L603.434 153.015" stroke="#E0E0E0" stroke-opacity="0.5" stroke-width="5"/>
<path d="M603.434 317.124L603.434 263.962" stroke="#E0E0E0" stroke-opacity="0.5" stroke-width="5"/>
<path d="M603.434 428.071L603.434 374.909" stroke="#E0E0E0" stroke-opacity="0.5" stroke-width="5"/>
<path d="M603.434 539.018L603.434 485.856" stroke="#E0E0E0" stroke-opacity="0.5" stroke-width="5"/>
<path d="M603.434 649.966L603.434 596.803" stroke="#E0E0E0" stroke-opacity="0.5" stroke-width="5"/>
<path d="M603.434 760.913L603.434 707.751" stroke="#E0E0E0" stroke-opacity="0.5" stroke-width="5"/>
<path d="M603.434 871.86L603.434 818.698" stroke="#E0E0E0" stroke-opacity="0.5" stroke-width="5"/>
<path d="M603.434 982.807L603.434 929.645" stroke="#E0E0E0" stroke-opacity="0.5" stroke-width="5"/>
<path d="M603.434 1093.75L603.434 1040.59" stroke="#E0E0E0" stroke-opacity="0.5" stroke-width="5"/>
<path d="M102.543 150.703L102.543 101.702" stroke="#E0E0E0" stroke-opacity="0.5" stroke-width="5"/>
<path d="M180.53 150.703L180.53 101.702" stroke="#E0E0E0" stroke-opacity="0.5" stroke-width="5"/>
<path d="M256.016 150.703L256.016 101.702" stroke="#E0E0E0" stroke-opacity="0.5" stroke-width="5"/>
<path d="M331.504 150.703L331.504 101.702" stroke="#E0E0E0" stroke-opacity="0.5" stroke-width="5"/>
<path d="M406.988 150.703L406.988 101.702" stroke="#E0E0E0" stroke-opacity="0.5" stroke-width="5"/>
<path d="M482.475 150.703L482.475 101.702" stroke="#E0E0E0" stroke-opacity="0.5" stroke-width="5"/>
<path d="M557.961 150.703L557.961 101.702" stroke="#E0E0E0" stroke-opacity="0.5" stroke-width="5"/>
<path d="M102.543 257.49L102.543 208.488" stroke="#E0E0E0" stroke-opacity="0.5" stroke-width="5"/>
<path d="M180.53 257.49L180.53 208.488" stroke="#E0E0E0" stroke-opacity="0.5" stroke-width="5"/>
<path d="M256.016 257.49L256.016 208.488" stroke="#E0E0E0" stroke-opacity="0.5" stroke-width="5"/>
<path d="M331.504 257.49L331.504 208.488" stroke="#E0E0E0" stroke-opacity="0.5" stroke-width="5"/>
<path d="M406.988 257.49L406.988 208.488" stroke="#E0E0E0" stroke-opacity="0.5" stroke-width="5"/>
<path d="M482.475 257.49L482.475 208.488" stroke="#E0E0E0" stroke-opacity="0.5" stroke-width="5"/>
<path d="M557.961 257.49L557.961 208.488" stroke="#E0E0E0" stroke-opacity="0.5" stroke-width="5"/>
<path d="M102.543 368.437L102.543 319.435" stroke="#E0E0E0" stroke-opacity="0.5" stroke-width="5"/>
<path d="M180.53 368.437L180.53 319.435" stroke="#E0E0E0" stroke-opacity="0.5" stroke-width="5"/>
<path d="M256.016 368.437L256.016 319.435" stroke="#E0E0E0" stroke-opacity="0.5" stroke-width="5"/>
<path d="M331.504 368.437L331.504 319.435" stroke="#E0E0E0" stroke-opacity="0.5" stroke-width="5"/>
<path d="M406.988 368.437L406.988 319.435" stroke="#E0E0E0" stroke-opacity="0.5" stroke-width="5"/>
<path d="M482.475 368.437L482.475 319.435" stroke="#E0E0E0" stroke-opacity="0.5" stroke-width="5"/>
<path d="M557.961 368.437L557.961 319.435" stroke="#E0E0E0" stroke-opacity="0.5" stroke-width="5"/>
<path d="M102.543 479.384L102.543 430.383" stroke="#E0E0E0" stroke-opacity="0.5" stroke-width="5"/>
<path d="M180.53 479.384L180.53 430.383" stroke="#E0E0E0" stroke-opacity="0.5" stroke-width="5"/>
<path d="M256.016 479.384L256.016 430.383" stroke="#E0E0E0" stroke-opacity="0.5" stroke-width="5"/>
<path d="M331.504 479.384L331.504 430.383" stroke="#E0E0E0" stroke-opacity="0.5" stroke-width="5"/>
<path d="M406.988 479.384L406.988 430.383" stroke="#E0E0E0" stroke-opacity="0.5" stroke-width="5"/>
<path d="M482.475 479.384L482.475 430.383" stroke="#E0E0E0" stroke-opacity="0.5" stroke-width="5"/>
<path d="M557.961 479.384L557.961 430.383" stroke="#E0E0E0" stroke-opacity="0.5" stroke-width="5"/>
<path d="M102.543 590.332L102.543 541.33" stroke="#E0E0E0" stroke-opacity="0.5" stroke-width="5"/>
<path d="M180.53 590.332L180.53 541.33" stroke="#E0E0E0" stroke-opacity="0.5" stroke-width="5"/>
<path d="M256.016 590.332L256.016 541.33" stroke="#E0E0E0" stroke-opacity="0.5" stroke-width="5"/>
<path d="M331.504 590.332L331.504 541.33" stroke="#E0E0E0" stroke-opacity="0.5" stroke-width="5"/>
<path d="M406.988 590.332L406.988 541.33" stroke="#E0E0E0" stroke-opacity="0.5" stroke-width="5"/>
<path d="M482.475 590.332L482.475 541.33" stroke="#E0E0E0" stroke-opacity="0.5" stroke-width="5"/>
<path d="M557.961 590.332L557.961 541.33" stroke="#E0E0E0" stroke-opacity="0.5" stroke-width="5"/>
<path d="M102.543 701.279L102.543 652.277" stroke="#E0E0E0" stroke-opacity="0.5" stroke-width="5"/>
<path d="M180.53 701.279L180.53 652.277" stroke="#E0E0E0" stroke-opacity="0.5" stroke-width="5"/>
<path d="M256.016 701.279L256.016 652.277" stroke="#E0E0E0" stroke-opacity="0.5" stroke-width="5"/>
<path d="M331.504 701.279L331.504 652.277" stroke="#E0E0E0" stroke-opacity="0.5" stroke-width="5"/>
<path d="M406.988 701.279L406.988 652.277" stroke="#E0E0E0" stroke-opacity="0.5" stroke-width="5"/>
<path d="M482.475 701.279L482.475 652.277" stroke="#E0E0E0" stroke-opacity="0.5" stroke-width="5"/>
<path d="M557.961 701.279L557.961 652.277" stroke="#E0E0E0" stroke-opacity="0.5" stroke-width="5"/>
<path d="M102.543 812.226L102.543 763.224" stroke="#E0E0E0" stroke-opacity="0.5" stroke-width="5"/>
<path d="M180.53 812.226L180.53 763.224" stroke="#E0E0E0" stroke-opacity="0.5" stroke-width="5"/>
<path d="M256.016 812.226L256.016 763.224" stroke="#E0E0E0" stroke-opacity="0.5" stroke-width="5"/>
<path d="M331.504 812.226L331.504 763.224" stroke="#E0E0E0" stroke-opacity="0.5" stroke-width="5"/>
<path d="M406.988 812.226L406.988 763.224" stroke="#E0E0E0" stroke-opacity="0.5" stroke-width="5"/>
<path d="M482.475 812.226L482.475 763.224" stroke="#E0E0E0" stroke-opacity="0.5" stroke-width="5"/>
<path d="M557.961 812.226L557.961 763.224" stroke="#E0E0E0" stroke-opacity="0.5" stroke-width="5"/>
<path d="M102.543 923.173L102.543 874.171" stroke="#E0E0E0" stroke-opacity="0.5" stroke-width="5"/>
<path d="M180.53 923.173L180.53 874.171" stroke="#E0E0E0" stroke-opacity="0.5" stroke-width="5"/>
<path d="M256.016 923.173L256.016 874.171" stroke="#E0E0E0" stroke-opacity="0.5" stroke-width="5"/>
<path d="M331.504 923.173L331.504 874.171" stroke="#E0E0E0" stroke-opacity="0.5" stroke-width="5"/>
<path d="M406.988 923.173L406.988 874.171" stroke="#E0E0E0" stroke-opacity="0.5" stroke-width="5"/>
<path d="M482.475 923.173L482.475 874.171" stroke="#E0E0E0" stroke-opacity="0.5" stroke-width="5"/>
<path d="M557.961 923.173L557.961 874.171" stroke="#E0E0E0" stroke-opacity="0.5" stroke-width="5"/>
<path d="M102.543 1034.12L102.543 985.119" stroke="#E0E0E0" stroke-opacity="0.5" stroke-width="5"/>
<path d="M180.53 1034.12L180.53 985.119" stroke="#E0E0E0" stroke-opacity="0.5" stroke-width="5"/>
<path d="M256.016 1034.12L256.016 985.119" stroke="#E0E0E0" stroke-opacity="0.5" stroke-width="5"/>
<path d="M331.504 1034.12L331.504 985.119" stroke="#E0E0E0" stroke-opacity="0.5" stroke-width="5"/>
<path d="M406.988 1034.12L406.988 985.119" stroke="#E0E0E0" stroke-opacity="0.5" stroke-width="5"/>
<path d="M482.475 1034.12L482.475 985.119" stroke="#E0E0E0" stroke-opacity="0.5" stroke-width="5"/>
<path d="M557.961 1034.12L557.961 985.119" stroke="#E0E0E0" stroke-opacity="0.5" stroke-width="5"/>
<line x1="23.1914" y1="205.988" x2="641.178" y2="205.988" stroke="#E0E0E0" stroke-opacity="0.5" stroke-width="5"/>
<line x1="23.1914" y1="261.462" x2="641.178" y2="261.462" stroke="#E0E0E0" stroke-opacity="0.5" stroke-width="5"/>
<line x1="23.1914" y1="316.935" x2="641.178" y2="316.935" stroke="#E0E0E0" stroke-opacity="0.5" stroke-width="5"/>
<line x1="23.1914" y1="372.409" x2="641.178" y2="372.409" stroke="#E0E0E0" stroke-opacity="0.5" stroke-width="5"/>
<line x1="23.1914" y1="427.883" x2="641.178" y2="427.883" stroke="#E0E0E0" stroke-opacity="0.5" stroke-width="5"/>
<line x1="23.1914" y1="483.356" x2="641.178" y2="483.356" stroke="#E0E0E0" stroke-opacity="0.5" stroke-width="5"/>
<line x1="23.1914" y1="538.83" x2="641.178" y2="538.83" stroke="#E0E0E0" stroke-opacity="0.5" stroke-width="5"/>
<line x1="23.1914" y1="594.303" x2="641.178" y2="594.303" stroke="#E0E0E0" stroke-opacity="0.5" stroke-width="5"/>
<line x1="23.1914" y1="649.777" x2="641.178" y2="649.777" stroke="#E0E0E0" stroke-opacity="0.5" stroke-width="5"/>
<line x1="23.1914" y1="705.251" x2="641.178" y2="705.251" stroke="#E0E0E0" stroke-opacity="0.5" stroke-width="5"/>
<line x1="23.1914" y1="760.724" x2="641.178" y2="760.724" stroke="#E0E0E0" stroke-opacity="0.5" stroke-width="5"/>
<line x1="23.1914" y1="816.198" x2="641.178" y2="816.198" stroke="#E0E0E0" stroke-opacity="0.5" stroke-width="5"/>
<line x1="23.1914" y1="871.671" x2="641.178" y2="871.671" stroke="#E0E0E0" stroke-opacity="0.5" stroke-width="5"/>
<line x1="23.1914" y1="927.145" x2="641.178" y2="927.145" stroke="#E0E0E0" stroke-opacity="0.5" stroke-width="5"/>
<line x1="23.1914" y1="982.619" x2="641.178" y2="982.619" stroke="#E0E0E0" stroke-opacity="0.5" stroke-width="5"/>
<line x1="23.1914" y1="1038.09" x2="641.178" y2="1038.09" stroke="#E0E0E0" stroke-opacity="0.5" stroke-width="5"/>
</g>
<rect x="321.043" y="199.705" width="22.7368" height="324.521" fill="#512E0E"/>
<g filter="url(#filter1_d_910_683)">
<mask id="path-155-inside-1_910_683" fill="white">
<rect x="153.246" y="151" width="356.058" height="361.965" rx="5"/>
</mask>
<rect x="153.246" y="151" width="356.058" height="361.965" rx="5" fill="url(#paint0_linear_910_683)"/>
<rect x="153.246" y="151" width="356.058" height="361.965" rx="5" stroke="#512E0E" stroke-width="100" mask="url(#path-155-inside-1_910_683)"/>
</g>
<rect x="172.8" y="345.158" width="23.114" height="319.225" transform="rotate(-90 172.8 345.158)" fill="#512E0E"/>
<ellipse cx="158.702" cy="474.596" rx="34.1052" ry="34.671" fill="url(#paint1_linear_910_683)"/>
<ellipse cx="351.965" cy="471.36" rx="34.1052" ry="34.671" transform="rotate(-180 351.965 471.36)" fill="url(#paint2_linear_910_683)"/>
<ellipse cx="200.083" cy="479.681" rx="19.0989" ry="19.4158" fill="url(#paint3_linear_910_683)"/>
<ellipse cx="310.583" cy="466.275" rx="19.0989" ry="19.4158" transform="rotate(-180 310.583 466.275)" fill="url(#paint4_linear_910_683)"/>
<ellipse cx="231.232" cy="471.591" rx="31.1494" ry="31.6662" fill="url(#paint5_linear_910_683)"/>
<ellipse cx="279.435" cy="474.365" rx="31.1494" ry="31.6662" transform="rotate(-180 279.435 474.365)" fill="url(#paint6_linear_910_683)"/>
<ellipse rx="34.1052" ry="34.671" transform="matrix(-1 0 0 1 462.465 474.596)" fill="url(#paint7_linear_910_683)"/>
<ellipse rx="19.0989" ry="19.4158" transform="matrix(-1 0 0 1 421.085 479.681)" fill="url(#paint8_linear_910_683)"/>
<ellipse rx="19.0989" ry="19.4158" transform="matrix(-1 0 0 1 501.573 479.681)" fill="url(#paint9_linear_910_683)"/>
<ellipse rx="25.0105" ry="25.4254" transform="matrix(-1 0 0 1 523.855 473.671)" fill="url(#paint10_linear_910_683)"/>
<ellipse rx="19.0989" ry="19.4158" transform="matrix(-1 0 0 1 134.146 485.691)" fill="url(#paint11_linear_910_683)"/>
<ellipse rx="31.1494" ry="31.6662" transform="matrix(-1 0 0 1 389.935 471.591)" fill="url(#paint12_linear_910_683)"/>
<rect x="111.41" y="479.681" width="441.549" height="75.8139" rx="10" fill="url(#paint13_linear_910_683)"/>
<g filter="url(#filter2_d_910_683)">
<mask id="path-170-inside-2_910_683" fill="white">
<rect x="152.836" y="650" width="356.058" height="361.965" rx="5"/>
</mask>
<rect x="152.836" y="650" width="356.058" height="361.965" rx="5" fill="url(#paint14_linear_910_683)"/>
<rect x="152.836" y="650" width="356.058" height="361.965" rx="5" stroke="#512E0E" stroke-width="100" mask="url(#path-170-inside-2_910_683)"/>
</g>
<rect x="172.39" y="844.158" width="23.114" height="319.225" transform="rotate(-90 172.39 844.158)" fill="#512E0E"/>
<ellipse cx="158.292" cy="973.596" rx="34.1052" ry="34.671" fill="url(#paint15_linear_910_683)"/>
<ellipse cx="351.555" cy="970.36" rx="34.1052" ry="34.671" transform="rotate(-180 351.555 970.36)" fill="url(#paint16_linear_910_683)"/>
<ellipse cx="199.673" cy="978.681" rx="19.0989" ry="19.4158" fill="url(#paint17_linear_910_683)"/>
<ellipse cx="310.173" cy="965.275" rx="19.0989" ry="19.4158" transform="rotate(-180 310.173 965.275)" fill="url(#paint18_linear_910_683)"/>
<ellipse cx="230.822" cy="970.591" rx="31.1494" ry="31.6662" fill="url(#paint19_linear_910_683)"/>
<ellipse cx="279.024" cy="973.365" rx="31.1494" ry="31.6662" transform="rotate(-180 279.024 973.365)" fill="url(#paint20_linear_910_683)"/>
<ellipse rx="34.1052" ry="34.671" transform="matrix(-1 0 0 1 462.055 973.596)" fill="url(#paint21_linear_910_683)"/>
<ellipse rx="19.0989" ry="19.4158" transform="matrix(-1 0 0 1 420.675 978.681)" fill="url(#paint22_linear_910_683)"/>
<ellipse rx="19.0989" ry="19.4158" transform="matrix(-1 0 0 1 501.163 978.681)" fill="url(#paint23_linear_910_683)"/>
<ellipse rx="25.0105" ry="25.4254" transform="matrix(-1 0 0 1 523.445 972.671)" fill="url(#paint24_linear_910_683)"/>
<ellipse rx="19.0989" ry="19.4158" transform="matrix(-1 0 0 1 133.736 984.691)" fill="url(#paint25_linear_910_683)"/>
<ellipse rx="31.1494" ry="31.6662" transform="matrix(-1 0 0 1 389.524 970.591)" fill="url(#paint26_linear_910_683)"/>
<rect x="111" y="978.681" width="441.549" height="75.8139" rx="10" fill="url(#paint27_linear_910_683)"/>
<line x1="124.598" y1="492.5" x2="537.953" y2="492.5" stroke="#A6774B" stroke-opacity="0.4"/>
<line x1="124.598" y1="991.5" x2="537.953" y2="991.5" stroke="#A6774B" stroke-opacity="0.4"/>
<line x1="124.598" y1="499.896" x2="248.286" y2="499.896" stroke="#A6774B" stroke-opacity="0.4"/>
<line x1="124.598" y1="998.896" x2="248.286" y2="998.896" stroke="#A6774B" stroke-opacity="0.4"/>
<line x1="153.246" y1="509.604" x2="386.071" y2="509.604" stroke="#A6774B" stroke-opacity="0.4"/>
<line x1="153.246" y1="1008.6" x2="386.071" y2="1008.6" stroke="#A6774B" stroke-opacity="0.4"/>
<line x1="153.246" y1="521.161" x2="482.475" y2="521.161" stroke="#A6774B" stroke-opacity="0.2"/>
<line x1="153.246" y1="1020.16" x2="482.475" y2="1020.16" stroke="#A6774B" stroke-opacity="0.2"/>
<line x1="124.598" y1="530.407" x2="453.827" y2="530.407" stroke="#A6774B" stroke-opacity="0.2"/>
<line x1="124.598" y1="1029.41" x2="453.827" y2="1029.41" stroke="#A6774B" stroke-opacity="0.2"/>
<line x1="134.147" y1="542.888" x2="509.305" y2="542.888" stroke="#A6774B" stroke-opacity="0.2"/>
<line x1="134.147" y1="1041.89" x2="509.305" y2="1041.89" stroke="#A6774B" stroke-opacity="0.2"/>
<rect width="664" height="111" rx="10" fill="url(#paint28_linear_910_683)"/>
<defs>
<filter id="filter0_i_910_683" x="23.1914" y="96.6165" width="617.986" height="1056.38" filterUnits="userSpaceOnUse" color-interpolation-filters="sRGB">
<feFlood flood-opacity="0" result="BackgroundImageFix"/>
<feBlend mode="normal" in="SourceGraphic" in2="BackgroundImageFix" result="shape"/>
<feColorMatrix in="SourceAlpha" type="matrix" values="0 0 0 0 0 0 0 0 0 0 0 0 0 0 0 0 0 0 127 0" result="hardAlpha"/>
<feOffset dy="50"/>
<feGaussianBlur stdDeviation="25"/>
<feComposite in2="hardAlpha" operator="arithmetic" k2="-1" k3="1"/>
<feColorMatrix type="matrix" values="0 0 0 0 0 0 0 0 0 0 0 0 0 0 0 0 0 0 0.15 0"/>
<feBlend mode="normal" in2="shape" result="effect1_innerShadow_910_683"/>
</filter>
<filter id="filter1_d_910_683" x="143.246" y="151" width="376.059" height="381.965" filterUnits="userSpaceOnUse" color-interpolation-filters="sRGB">
<feFlood flood-opacity="0" result="BackgroundImageFix"/>
<feColorMatrix in="SourceAlpha" type="matrix" values="0 0 0 0 0 0 0 0 0 0 0 0 0 0 0 0 0 0 127 0" result="hardAlpha"/>
<feOffset dy="10"/>
<feGaussianBlur stdDeviation="5"/>
<feComposite in2="hardAlpha" operator="out"/>
<feColorMatrix type="matrix" values="0 0 0 0 0 0 0 0 0 0 0 0 0 0 0 0 0 0 0.15 0"/>
<feBlend mode="normal" in2="BackgroundImageFix" result="effect1_dropShadow_910_683"/>
<feBlend mode="normal" in="SourceGraphic" in2="effect1_dropShadow_910_683" result="shape"/>
</filter>
<filter id="filter2_d_910_683" x="142.836" y="650" width="376.059" height="381.965" filterUnits="userSpaceOnUse" color-interpolation-filters="sRGB">
<feFlood flood-opacity="0" result="BackgroundImageFix"/>
<feColorMatrix in="SourceAlpha" type="matrix" values="0 0 0 0 0 0 0 0 0 0 0 0 0 0 0 0 0 0 127 0" result="hardAlpha"/>
<feOffset dy="10"/>
<feGaussianBlur stdDeviation="5"/>
<feComposite in2="hardAlpha" operator="out"/>
<feColorMatrix type="matrix" values="0 0 0 0 0 0 0 0 0 0 0 0 0 0 0 0 0 0 0.15 0"/>
<feBlend mode="normal" in2="BackgroundImageFix" result="effect1_dropShadow_910_683"/>
<feBlend mode="normal" in="SourceGraphic" in2="effect1_dropShadow_910_683" result="shape"/>
</filter>
<linearGradient id="paint0_linear_910_683" x1="331.275" y1="151" x2="331.275" y2="512.965" gradientUnits="userSpaceOnUse">
<stop/>
<stop offset="0.0001" stop-color="#684B20"/>
<stop offset="0.586458" stop-color="#051321"/>
</linearGradient>
<linearGradient id="paint1_linear_910_683" x1="158.702" y1="439.925" x2="158.702" y2="509.267" gradientUnits="userSpaceOnUse">
<stop stop-color="#0D7023"/>
<stop offset="1" stop-color="#0F952C"/>
</linearGradient>
<linearGradient id="paint2_linear_910_683" x1="351.965" y1="436.689" x2="351.965" y2="506.031" gradientUnits="userSpaceOnUse">
<stop stop-color="#0D7023"/>
<stop offset="1" stop-color="#0F952C"/>
</linearGradient>
<linearGradient id="paint3_linear_910_683" x1="200.083" y1="460.265" x2="200.083" y2="499.097" gradientUnits="userSpaceOnUse">
<stop stop-color="#0D7023"/>
<stop offset="1" stop-color="#0F952C"/>
</linearGradient>
<linearGradient id="paint4_linear_910_683" x1="310.583" y1="446.859" x2="310.583" y2="485.691" gradientUnits="userSpaceOnUse">
<stop stop-color="#0D7023"/>
<stop offset="1" stop-color="#0F952C"/>
</linearGradient>
<linearGradient id="paint5_linear_910_683" x1="231.232" y1="439.925" x2="231.232" y2="503.257" gradientUnits="userSpaceOnUse">
<stop stop-color="#0D7023"/>
<stop offset="1" stop-color="#0F952C"/>
</linearGradient>
<linearGradient id="paint6_linear_910_683" x1="279.435" y1="442.699" x2="279.435" y2="506.031" gradientUnits="userSpaceOnUse">
<stop stop-color="#0D7023"/>
<stop offset="1" stop-color="#0F952C"/>
</linearGradient>
<linearGradient id="paint7_linear_910_683" x1="34.1052" y1="0" x2="34.1052" y2="69.342" gradientUnits="userSpaceOnUse">
<stop stop-color="#0D7023"/>
<stop offset="1" stop-color="#0F952C"/>
</linearGradient>
<linearGradient id="paint8_linear_910_683" x1="19.0989" y1="0" x2="19.0989" y2="38.8315" gradientUnits="userSpaceOnUse">
<stop stop-color="#0D7023"/>
<stop offset="1" stop-color="#0F952C"/>
</linearGradient>
<linearGradient id="paint9_linear_910_683" x1="19.0989" y1="0" x2="19.0989" y2="38.8315" gradientUnits="userSpaceOnUse">
<stop stop-color="#0D7023"/>
<stop offset="1" stop-color="#0F952C"/>
</linearGradient>
<linearGradient id="paint10_linear_910_683" x1="25.0105" y1="0" x2="25.0105" y2="50.8508" gradientUnits="userSpaceOnUse">
<stop stop-color="#0D7023"/>
<stop offset="1" stop-color="#0F952C"/>
</linearGradient>
<linearGradient id="paint11_linear_910_683" x1="19.0989" y1="0" x2="19.0989" y2="38.8315" gradientUnits="userSpaceOnUse">
<stop stop-color="#0D7023"/>
<stop offset="1" stop-color="#0F952C"/>
</linearGradient>
<linearGradient id="paint12_linear_910_683" x1="31.1494" y1="0" x2="31.1494" y2="63.3324" gradientUnits="userSpaceOnUse">
<stop stop-color="#0D7023"/>
<stop offset="1" stop-color="#0F952C"/>
</linearGradient>
<linearGradient id="paint13_linear_910_683" x1="332.184" y1="479.681" x2="332.184" y2="555.495" gradientUnits="userSpaceOnUse">
<stop stop-color="#512E0E"/>
<stop offset="0.109375" stop-color="#6F4825"/>
<stop offset="1" stop-color="#512E0E"/>
</linearGradient>
<linearGradient id="paint14_linear_910_683" x1="330.865" y1="650" x2="330.865" y2="1011.97" gradientUnits="userSpaceOnUse">
<stop/>
<stop offset="0.0001" stop-color="#684B20"/>
<stop offset="0.586458" stop-color="#051321"/>
</linearGradient>
<linearGradient id="paint15_linear_910_683" x1="158.292" y1="938.925" x2="158.292" y2="1008.27" gradientUnits="userSpaceOnUse">
<stop stop-color="#0D7023"/>
<stop offset="1" stop-color="#0F952C"/>
</linearGradient>
<linearGradient id="paint16_linear_910_683" x1="351.555" y1="935.689" x2="351.555" y2="1005.03" gradientUnits="userSpaceOnUse">
<stop stop-color="#0D7023"/>
<stop offset="1" stop-color="#0F952C"/>
</linearGradient>
<linearGradient id="paint17_linear_910_683" x1="199.673" y1="959.265" x2="199.673" y2="998.097" gradientUnits="userSpaceOnUse">
<stop stop-color="#0D7023"/>
<stop offset="1" stop-color="#0F952C"/>
</linearGradient>
<linearGradient id="paint18_linear_910_683" x1="310.173" y1="945.859" x2="310.173" y2="984.691" gradientUnits="userSpaceOnUse">
<stop stop-color="#0D7023"/>
<stop offset="1" stop-color="#0F952C"/>
</linearGradient>
<linearGradient id="paint19_linear_910_683" x1="230.822" y1="938.925" x2="230.822" y2="1002.26" gradientUnits="userSpaceOnUse">
<stop stop-color="#0D7023"/>
<stop offset="1" stop-color="#0F952C"/>
</linearGradient>
<linearGradient id="paint20_linear_910_683" x1="279.024" y1="941.699" x2="279.024" y2="1005.03" gradientUnits="userSpaceOnUse">
<stop stop-color="#0D7023"/>
<stop offset="1" stop-color="#0F952C"/>
</linearGradient>
<linearGradient id="paint21_linear_910_683" x1="34.1052" y1="0" x2="34.1052" y2="69.342" gradientUnits="userSpaceOnUse">
<stop stop-color="#0D7023"/>
<stop offset="1" stop-color="#0F952C"/>
</linearGradient>
<linearGradient id="paint22_linear_910_683" x1="19.0989" y1="0" x2="19.0989" y2="38.8315" gradientUnits="userSpaceOnUse">
<stop stop-color="#0D7023"/>
<stop offset="1" stop-color="#0F952C"/>
</linearGradient>
<linearGradient id="paint23_linear_910_683" x1="19.0989" y1="0" x2="19.0989" y2="38.8315" gradientUnits="userSpaceOnUse">
<stop stop-color="#0D7023"/>
<stop offset="1" stop-color="#0F952C"/>
</linearGradient>
<linearGradient id="paint24_linear_910_683" x1="25.0105" y1="0" x2="25.0105" y2="50.8508" gradientUnits="userSpaceOnUse">
<stop stop-color="#0D7023"/>
<stop offset="1" stop-color="#0F952C"/>
</linearGradient>
<linearGradient id="paint25_linear_910_683" x1="19.0989" y1="0" x2="19.0989" y2="38.8315" gradientUnits="userSpaceOnUse">
<stop stop-color="#0D7023"/>
<stop offset="1" stop-color="#0F952C"/>
</linearGradient>
<linearGradient id="paint26_linear_910_683" x1="31.1494" y1="0" x2="31.1494" y2="63.3324" gradientUnits="userSpaceOnUse">
<stop stop-color="#0D7023"/>
<stop offset="1" stop-color="#0F952C"/>
</linearGradient>
<linearGradient id="paint27_linear_910_683" x1="331.774" y1="978.681" x2="331.774" y2="1054.49" gradientUnits="userSpaceOnUse">
<stop stop-color="#512E0E"/>
<stop offset="0.109375" stop-color="#6F4825"/>
<stop offset="1" stop-color="#512E0E"/>
</linearGradient>
<linearGradient id="paint28_linear_910_683" x1="332" y1="0" x2="332" y2="111" gradientUnits="userSpaceOnUse">
<stop stop-color="#8C8C8C"/>
<stop offset="0.109375" stop-color="#979797"/>
<stop offset="1" stop-color="#737373"/>
</linearGradient>
</defs>
</svg>
