<svg width="26" height="24" viewBox="0 0 26 24" fill="none" xmlns="http://www.w3.org/2000/svg">
<path d="M24.9992 7.40459L24.9991 7.41554L24.9992 7.42648C25.0247 9.63451 24.4207 11.8029 23.2599 13.6736L23.2587 13.6754C22.2707 15.2754 21.0687 16.7299 19.6868 17.9979L19.6797 18.0044L19.6728 18.011C17.9061 19.6957 15.9711 21.191 13.8988 22.4729C13.6389 22.6308 13.3636 22.7767 13.0709 22.9236C9.78712 21.1336 6.82894 18.9968 4.43521 16.1551L4.42903 16.1477L4.4227 16.1405C3.12049 14.6535 2.12959 12.9158 1.51001 11.0317C0.927266 9.15985 0.798123 7.34348 1.3634 5.54666L1.36712 5.53481L1.37055 5.52288C1.62742 4.62948 2.07144 3.80274 2.67205 3.09842C3.27025 2.39693 4.00983 1.83324 4.84075 1.44466C5.81111 1.02068 6.88386 0.896314 7.92383 1.08698L7.9409 1.09011L7.95806 1.09264C9.6174 1.3377 10.863 2.27225 11.8783 3.73061C11.8797 3.73266 11.8813 3.73485 11.8829 3.73719C11.9131 3.78132 11.978 3.87603 12.051 3.95708L12.0525 3.95877C12.1089 4.02147 12.3864 4.32981 12.8619 4.32981C13.3098 4.32981 13.5847 4.05167 13.6397 3.99595C13.641 3.9947 13.6421 3.99355 13.6431 3.99253C13.7169 3.91822 13.7854 3.83024 13.8203 3.78543C13.8223 3.78288 13.8241 3.78046 13.8259 3.7782C14.7812 2.56278 15.876 1.68601 17.2456 1.30954L17.2456 1.30956L17.252 1.30778C18.434 0.974492 19.4954 0.934957 20.4478 1.17136C21.395 1.40649 22.2983 1.93019 23.1469 2.82532L23.1536 2.83238L23.1604 2.83932C23.751 3.43855 24.218 4.1507 24.5339 4.93454C24.8497 5.7184 25.008 6.55806 24.9992 7.40459Z" fill="#F36072" stroke="#F36072" stroke-width="2"/>
</svg>
