<svg width="220" height="62" viewBox="0 0 220 62" fill="none" xmlns="http://www.w3.org/2000/svg">
<path d="M1.17314 26.249C1.17314 24.4523 1.53248 22.8776 2.25116 21.5248C2.99098 20.1508 4.00558 19.0939 5.29498 18.3541C6.58437 17.6143 8.06401 17.2444 9.73388 17.2444C11.8476 17.2444 13.5915 17.7517 14.9654 18.7663C16.3605 19.7598 17.3012 21.1866 17.7873 23.0467H13.8874C13.5704 22.18 13.0631 21.5036 12.3655 21.0175C11.668 20.5313 10.7908 20.2882 9.73388 20.2882C8.25425 20.2882 7.07054 20.8166 6.18276 21.8735C5.31612 22.9093 4.88279 24.3678 4.88279 26.249C4.88279 28.1303 5.31612 29.5993 6.18276 30.6562C7.07054 31.7131 8.25425 32.2415 9.73388 32.2415C11.8265 32.2415 13.211 31.3221 13.8874 29.4831H17.7873C17.28 31.2586 16.3288 32.6749 14.9337 33.7317C13.5387 34.7675 11.8054 35.2854 9.73388 35.2854C8.06401 35.2854 6.58437 34.9154 5.29498 34.1756C4.00558 33.4147 2.99098 32.3578 2.25116 31.005C1.53248 29.631 1.17314 28.0457 1.17314 26.249ZM25.004 11.5372V35H21.3895V11.5372H25.004ZM83.384 20.4784V30.1489C83.384 30.8042 83.532 31.2798 83.8279 31.5757C84.145 31.8505 84.6734 31.9879 85.4132 31.9879H87.6327V35H84.7791C83.1515 35 81.9044 34.6195 81.0377 33.8586C80.1711 33.0976 79.7378 31.8611 79.7378 30.1489V20.4784H77.6769V17.5297H79.7378V13.186H83.384V17.5297H87.6327V20.4784H83.384ZM100 17.2444C101.332 17.2444 102.516 17.5297 103.552 18.1005C104.608 18.6712 105.433 19.5167 106.025 20.637C106.638 21.7573 106.944 23.1101 106.944 24.6954V35H103.361V25.2344C103.361 23.6702 102.97 22.4759 102.188 21.6516C101.406 20.8061 100.339 20.3833 98.9858 20.3833C97.633 20.3833 96.555 20.8061 95.7518 21.6516C94.9697 22.4759 94.5786 23.6702 94.5786 25.2344V35H90.9641V11.5372H94.5786V19.559C95.1916 18.8191 95.9631 18.2484 96.8932 17.8468C97.8444 17.4452 98.8801 17.2444 100 17.2444ZM127.566 25.8368C127.566 26.4921 127.524 27.084 127.44 27.6124H114.091C114.197 29.0075 114.715 30.1278 115.645 30.9733C116.575 31.8188 117.716 32.2415 119.069 32.2415C121.014 32.2415 122.388 31.4277 123.191 29.8001H127.091C126.562 31.4066 125.601 32.7277 124.206 33.7634C122.832 34.7781 121.119 35.2854 119.069 35.2854C117.399 35.2854 115.898 34.9154 114.567 34.1756C113.256 33.4147 112.221 32.3578 111.46 31.005C110.72 29.631 110.35 28.0457 110.35 26.249C110.35 24.4523 110.709 22.8776 111.428 21.5248C112.168 20.1508 113.193 19.0939 114.503 18.3541C115.835 17.6143 117.357 17.2444 119.069 17.2444C120.718 17.2444 122.187 17.6037 123.476 18.3224C124.766 19.0411 125.77 20.0557 126.488 21.3662C127.207 22.6556 127.566 24.1458 127.566 25.8368ZM123.793 24.6954C123.772 23.3637 123.297 22.2963 122.367 21.493C121.437 20.6898 120.285 20.2882 118.911 20.2882C117.663 20.2882 116.596 20.6898 115.708 21.493C114.82 22.2751 114.292 23.3426 114.123 24.6954H123.793ZM137.465 35.2854C136.091 35.2854 134.854 35.0423 133.755 34.5561C132.677 34.0488 131.821 33.3724 131.187 32.5269C130.553 31.6603 130.215 30.6985 130.172 29.6416H133.914C133.977 30.3814 134.326 31.005 134.96 31.5123C135.615 31.9985 136.429 32.2415 137.401 32.2415C138.416 32.2415 139.198 32.0513 139.748 31.6708C140.318 31.2692 140.604 30.7619 140.604 30.1489C140.604 29.4936 140.287 29.0075 139.653 28.6904C139.04 28.3734 138.057 28.0246 136.704 27.6441C135.393 27.2848 134.326 26.936 133.502 26.5978C132.677 26.2596 131.958 25.7417 131.345 25.0442C130.754 24.3466 130.458 23.4271 130.458 22.2857C130.458 21.3557 130.732 20.5101 131.282 19.7492C131.832 18.9671 132.614 18.3541 133.628 17.9102C134.664 17.4663 135.848 17.2444 137.179 17.2444C139.166 17.2444 140.762 17.7517 141.967 18.7663C143.193 19.7598 143.848 21.1231 143.933 22.8564H140.318C140.255 22.0743 139.938 21.4508 139.367 20.9857C138.796 20.5207 138.025 20.2882 137.053 20.2882C136.101 20.2882 135.372 20.4679 134.865 20.8272C134.358 21.1866 134.104 21.6622 134.104 22.254C134.104 22.719 134.273 23.1101 134.611 23.4271C134.949 23.7442 135.362 23.9979 135.848 24.1881C136.334 24.3572 137.053 24.5791 138.004 24.8539C139.272 25.1921 140.308 25.5409 141.111 25.9002C141.935 26.2384 142.644 26.7458 143.235 27.4222C143.827 28.0986 144.134 28.9969 144.155 30.1172C144.155 31.1107 143.88 31.9985 143.331 32.7805C142.781 33.5626 141.999 34.1756 140.984 34.6195C139.991 35.0634 138.818 35.2854 137.465 35.2854ZM151.675 11.5372V35H148.06V11.5372H151.675ZM158.26 15.2152C157.604 15.2152 157.055 14.9932 156.611 14.5493C156.167 14.1054 155.945 13.5559 155.945 12.9006C155.945 12.2453 156.167 11.6958 156.611 11.2519C157.055 10.808 157.604 10.586 158.26 10.586C158.894 10.586 159.433 10.808 159.877 11.2519C160.32 11.6958 160.542 12.2453 160.542 12.9006C160.542 13.5559 160.32 14.1054 159.877 14.5493C159.433 14.9932 158.894 15.2152 158.26 15.2152ZM160.035 17.5297V35H156.421V17.5297H160.035ZM173.595 17.2444C174.969 17.2444 176.195 17.5297 177.273 18.1005C178.372 18.6712 179.228 19.5167 179.841 20.637C180.454 21.7573 180.761 23.1101 180.761 24.6954V35H177.178V25.2344C177.178 23.6702 176.787 22.4759 176.005 21.6516C175.223 20.8061 174.155 20.3833 172.802 20.3833C171.45 20.3833 170.372 20.8061 169.568 21.6516C168.786 22.4759 168.395 23.6702 168.395 25.2344V35H164.781V17.5297H168.395V19.5272C168.987 18.8086 169.737 18.2484 170.646 17.8468C171.576 17.4452 172.559 17.2444 173.595 17.2444ZM201.383 25.8368C201.383 26.4921 201.341 27.084 201.256 27.6124H187.908C188.014 29.0075 188.531 30.1278 189.461 30.9733C190.391 31.8188 191.533 32.2415 192.886 32.2415C194.83 32.2415 196.204 31.4277 197.008 29.8001H200.907C200.379 31.4066 199.417 32.7277 198.022 33.7634C196.648 34.7781 194.936 35.2854 192.886 35.2854C191.216 35.2854 189.715 34.9154 188.383 34.1756C187.073 33.4147 186.037 32.3578 185.276 31.005C184.536 29.631 184.166 28.0457 184.166 26.249C184.166 24.4523 184.526 22.8776 185.244 21.5248C185.984 20.1508 187.009 19.0939 188.32 18.3541C189.652 17.6143 191.174 17.2444 192.886 17.2444C194.534 17.2444 196.004 17.6037 197.293 18.3224C198.582 19.0411 199.586 20.0557 200.305 21.3662C201.024 22.6556 201.383 24.1458 201.383 25.8368ZM197.61 24.6954C197.589 23.3637 197.113 22.2963 196.183 21.493C195.253 20.6898 194.101 20.2882 192.727 20.2882C191.48 20.2882 190.413 20.6898 189.525 21.493C188.637 22.2751 188.109 23.3426 187.94 24.6954H197.61ZM211.281 35.2854C209.907 35.2854 208.671 35.0423 207.572 34.5561C206.494 34.0488 205.638 33.3724 205.004 32.5269C204.369 31.6603 204.031 30.6985 203.989 29.6416H207.73C207.794 30.3814 208.142 31.005 208.777 31.5123C209.432 31.9985 210.246 32.2415 211.218 32.2415C212.233 32.2415 213.015 32.0513 213.564 31.6708C214.135 31.2692 214.42 30.7619 214.42 30.1489C214.42 29.4936 214.103 29.0075 213.469 28.6904C212.856 28.3734 211.873 28.0246 210.52 27.6441C209.21 27.2848 208.142 26.936 207.318 26.5978C206.494 26.2596 205.775 25.7417 205.162 25.0442C204.57 24.3466 204.274 23.4271 204.274 22.2857C204.274 21.3557 204.549 20.5101 205.099 19.7492C205.648 18.9671 206.43 18.3541 207.445 17.9102C208.481 17.4663 209.664 17.2444 210.996 17.2444C212.983 17.2444 214.579 17.7517 215.784 18.7663C217.01 19.7598 217.665 21.1231 217.75 22.8564H214.135C214.072 22.0743 213.755 21.4508 213.184 20.9857C212.613 20.5207 211.842 20.2882 210.869 20.2882C209.918 20.2882 209.189 20.4679 208.681 20.8272C208.174 21.1866 207.921 21.6622 207.921 22.254C207.921 22.719 208.09 23.1101 208.428 23.4271C208.766 23.7442 209.178 23.9979 209.664 24.1881C210.151 24.3572 210.869 24.5791 211.82 24.8539C213.089 25.1921 214.124 25.5409 214.928 25.9002C215.752 26.2384 216.46 26.7458 217.052 27.4222C217.644 28.0986 217.95 28.9969 217.971 30.1172C217.971 31.1107 217.697 31.9985 217.147 32.7805C216.598 33.5626 215.815 34.1756 214.801 34.6195C213.807 35.0634 212.634 35.2854 211.281 35.2854Z" fill="#333333"/>
<path d="M53.6582 38.6427C52.4064 38.9673 51.0619 39.1527 49.7173 39.1527C40.9546 39.1527 33.861 32.0127 33.861 23.2964C33.861 14.5801 40.9546 7.44015 49.7173 7.44015C54.8173 7.44015 59.4073 9.8974 62.3282 13.6528C63.1627 12.8647 64.3218 12.3547 65.5736 12.3547H65.6663C62.1427 7.30106 56.3009 3.96289 49.7173 3.96289C39.0537 3.96289 30.3838 12.6328 30.3838 23.2964C30.3838 33.96 39.0537 42.63 49.7173 42.63C51.2473 42.63 52.6846 42.4445 54.1218 42.12C53.7973 41.2391 53.6582 40.3118 53.6582 39.2918C53.6118 39.06 53.6118 38.8745 53.6582 38.6427Z" fill="#333333"/>
<path d="M49.7163 15.4612C45.4045 15.4612 41.8809 18.9848 41.8809 23.2966C41.8809 27.6084 45.4045 31.132 49.7163 31.132C54.0281 31.132 57.5517 27.6084 57.5517 23.2966C57.5517 18.9848 54.0281 15.4612 49.7163 15.4612ZM49.7163 27.6548C47.3054 27.6548 45.3581 25.7075 45.3581 23.2966C45.3581 20.8857 47.3054 18.9384 49.7163 18.9384C52.1272 18.9384 54.0744 20.8857 54.0744 23.2966C54.0744 25.7075 52.1272 27.6548 49.7163 27.6548Z" fill="#333333"/>
<path d="M72.6672 18.6602C70.9054 16.5738 68.309 15.322 65.5736 15.322C64.5536 15.322 63.7191 16.1102 63.7191 17.1302V34.1919C63.1627 34.0065 62.56 33.8674 61.9573 33.8674C58.99 33.8674 56.5791 36.2783 56.5791 39.2455C56.5791 42.2128 58.99 44.6237 61.9573 44.6237C64.9245 44.6237 67.3354 42.2128 67.3354 39.2455V19.2165C68.309 19.5411 69.1899 20.1438 69.8854 20.9784C70.9518 22.2765 71.2299 23.6211 70.9981 25.1047C70.9054 25.6147 70.5808 26.6347 70.2099 27.6547C69.839 28.6747 71.1836 29.4629 71.879 28.6283C74.0581 26.2174 75.9126 22.5083 72.6672 18.6602Z" fill="#333333"/>
<path d="M150.186 53.1756C149.064 53.1756 148.145 52.9289 147.43 52.4357C146.727 51.9425 146.332 51.2397 146.246 50.3273H147.097C147.159 50.9808 147.454 51.4986 147.985 51.8809C148.527 52.2631 149.261 52.4542 150.186 52.4542C150.95 52.4542 151.554 52.2631 151.998 51.8809C152.454 51.4863 152.682 51.0054 152.682 50.4382C152.682 50.0437 152.559 49.7231 152.313 49.4765C152.078 49.2175 151.782 49.0202 151.425 48.8846C151.067 48.749 150.58 48.601 149.964 48.4407C149.224 48.2434 148.626 48.0523 148.17 47.8674C147.713 47.6701 147.325 47.3803 147.004 46.9981C146.684 46.6158 146.523 46.1041 146.523 45.463C146.523 44.9944 146.665 44.5628 146.949 44.1683C147.232 43.7614 147.627 43.4408 148.133 43.2065C148.638 42.9722 149.211 42.8551 149.853 42.8551C150.901 42.8551 151.745 43.1202 152.387 43.6504C153.04 44.1683 153.391 44.8896 153.441 45.8144H152.608C152.571 45.1485 152.313 44.606 151.832 44.1868C151.351 43.7675 150.685 43.5579 149.834 43.5579C149.119 43.5579 148.527 43.7429 148.059 44.1128C147.59 44.4827 147.356 44.9328 147.356 45.463C147.356 45.9315 147.485 46.3137 147.744 46.6097C148.015 46.8933 148.342 47.1152 148.724 47.2755C149.119 47.4235 149.637 47.5838 150.278 47.7564C150.981 47.9413 151.542 48.1263 151.961 48.3113C152.393 48.4839 152.756 48.7428 153.052 49.0881C153.348 49.421 153.496 49.871 153.496 50.4382C153.496 50.9561 153.354 51.4247 153.071 51.8439C152.787 52.2631 152.393 52.5899 151.887 52.8241C151.382 53.0584 150.814 53.1756 150.186 53.1756ZM160.452 53.1756C159.515 53.1756 158.67 52.9659 157.918 52.5467C157.166 52.1275 156.574 51.5295 156.142 50.7526C155.723 49.9635 155.514 49.0449 155.514 47.9968C155.514 46.9611 155.729 46.0548 156.161 45.278C156.592 44.4889 157.184 43.8908 157.936 43.4839C158.701 43.0647 159.552 42.8551 160.489 42.8551C161.426 42.8551 162.271 43.0647 163.023 43.4839C163.775 43.8908 164.361 44.4827 164.78 45.2595C165.211 46.0363 165.427 46.9488 165.427 47.9968C165.427 49.0449 165.211 49.9635 164.78 50.7526C164.348 51.5295 163.75 52.1275 162.986 52.5467C162.234 52.9659 161.389 53.1756 160.452 53.1756ZM160.452 52.4357C161.179 52.4357 161.858 52.2754 162.486 51.9549C163.128 51.6219 163.639 51.1226 164.021 50.4567C164.404 49.7909 164.595 48.9709 164.595 47.9968C164.595 47.0351 164.404 46.2213 164.021 45.5554C163.639 44.8896 163.134 44.3964 162.505 44.0758C161.876 43.7429 161.198 43.5764 160.47 43.5764C159.743 43.5764 159.065 43.7429 158.436 44.0758C157.819 44.3964 157.32 44.8896 156.938 45.5554C156.555 46.2213 156.364 47.0351 156.364 47.9968C156.364 48.9709 156.549 49.7909 156.919 50.4567C157.301 51.1226 157.801 51.6219 158.417 51.9549C159.046 52.2754 159.724 52.4357 160.452 52.4357ZM172.484 42.7811C173.68 42.7811 174.654 43.151 175.406 43.8908C176.158 44.6183 176.534 45.7034 176.534 47.146V53.0276H175.72V47.2015C175.72 46.0055 175.418 45.093 174.814 44.4642C174.21 43.823 173.39 43.5024 172.354 43.5024C171.269 43.5024 170.4 43.8477 169.746 44.5382C169.105 45.2287 168.785 46.2521 168.785 47.6084V53.0276H167.952V42.9846H168.785V45.1115C169.068 44.3594 169.537 43.786 170.19 43.3915C170.856 42.9846 171.621 42.7811 172.484 42.7811ZM183.804 42.8551C184.864 42.8551 185.764 43.114 186.504 43.6319C187.244 44.1375 187.762 44.791 188.058 45.5924V42.9846H188.89V53.342C188.89 54.2668 188.687 55.0744 188.28 55.7649C187.873 56.4677 187.324 57.0041 186.634 57.374C185.943 57.7563 185.172 57.9474 184.322 57.9474C183.064 57.9474 182.022 57.6453 181.196 57.0411C180.37 56.4369 179.827 55.6231 179.568 54.5997H180.401C180.647 55.4012 181.11 56.0362 181.788 56.5047C182.466 56.9856 183.311 57.2261 184.322 57.2261C185.024 57.2261 185.659 57.0658 186.227 56.7452C186.794 56.4369 187.238 55.9869 187.558 55.395C187.891 54.8155 188.058 54.1311 188.058 53.342V50.4012C187.762 51.2027 187.238 51.8685 186.486 52.3987C185.746 52.9166 184.852 53.1756 183.804 53.1756C182.867 53.1756 182.028 52.9659 181.288 52.5467C180.561 52.1151 179.988 51.511 179.568 50.7342C179.161 49.945 178.958 49.0326 178.958 47.9968C178.958 46.9611 179.161 46.0548 179.568 45.278C179.988 44.5012 180.561 43.9032 181.288 43.4839C182.028 43.0647 182.867 42.8551 183.804 42.8551ZM188.058 47.9968C188.058 47.1214 187.873 46.3507 187.503 45.6849C187.145 45.0067 186.652 44.4889 186.023 44.1313C185.394 43.7614 184.692 43.5764 183.915 43.5764C183.101 43.5764 182.386 43.7552 181.769 44.1128C181.153 44.458 180.672 44.9636 180.327 45.6294C179.981 46.2953 179.809 47.0844 179.809 47.9968C179.809 48.9093 179.981 49.6984 180.327 50.3642C180.672 51.0301 181.153 51.5418 181.769 51.8994C182.398 52.2569 183.113 52.4357 183.915 52.4357C184.692 52.4357 185.394 52.2569 186.023 51.8994C186.664 51.5295 187.164 51.0116 187.521 50.3458C187.879 49.6676 188.058 48.8846 188.058 47.9968ZM195.268 53.1756C194.146 53.1756 193.228 52.9289 192.512 52.4357C191.81 51.9425 191.415 51.2397 191.329 50.3273H192.179C192.241 50.9808 192.537 51.4986 193.067 51.8809C193.61 52.2631 194.343 52.4542 195.268 52.4542C196.033 52.4542 196.637 52.2631 197.081 51.8809C197.537 51.4863 197.765 51.0054 197.765 50.4382C197.765 50.0437 197.642 49.7231 197.395 49.4765C197.161 49.2175 196.865 49.0202 196.507 48.8846C196.15 48.749 195.663 48.601 195.046 48.4407C194.306 48.2434 193.708 48.0523 193.252 47.8674C192.796 47.6701 192.408 47.3803 192.087 46.9981C191.766 46.6158 191.606 46.1041 191.606 45.463C191.606 44.9944 191.748 44.5628 192.032 44.1683C192.315 43.7614 192.71 43.4408 193.215 43.2065C193.721 42.9722 194.294 42.8551 194.935 42.8551C195.983 42.8551 196.828 43.1202 197.469 43.6504C198.123 44.1683 198.474 44.8896 198.523 45.8144H197.691C197.654 45.1485 197.395 44.606 196.914 44.1868C196.433 43.7675 195.768 43.5579 194.917 43.5579C194.202 43.5579 193.61 43.7429 193.141 44.1128C192.673 44.4827 192.438 44.9328 192.438 45.463C192.438 45.9315 192.568 46.3137 192.827 46.6097C193.098 46.8933 193.425 47.1152 193.807 47.2755C194.202 47.4235 194.72 47.5838 195.361 47.7564C196.064 47.9413 196.625 48.1263 197.044 48.3113C197.475 48.4839 197.839 48.7428 198.135 49.0881C198.431 49.421 198.579 49.871 198.579 50.4382C198.579 50.9561 198.437 51.4247 198.153 51.8439C197.87 52.2631 197.475 52.5899 196.97 52.8241C196.464 53.0584 195.897 53.1756 195.268 53.1756Z" fill="#333333"/>
</svg>
